<svg xmlns="http://www.w3.org/2000/svg" width="928" height="928" preserveAspectRatio="xMidYMid meet" version="1.0" viewBox="0 0 696 696"><metadata>Created by potrace 1.14, written by Peter Selinger 2001-2017</metadata><g fill="#000" stroke="none"><path d="M1340 4985 l0 -1825 -115 0 -115 0 0 -225 0 -225 115 0 115 0 0 -295 0 -295 90 0 90 0 0 -90 0 -90 -90 0 -90 0 0 -115 0 -115 90 0 90 0 0 -110 0 -110 315 0 315 0 0 -90 0 -90 -115 0 -115 0 0 -115 0 -115 -90 0 -90 0 0 -290 0 -290 -110 0 -110 0 0 -205 0 -205 515 0 515 0 0 205 0 205 115 0 115 0 0 200 0 200 495 0 495 0 0 -110 0 -110 90 0 90 0 0 -295 0 -295 520 0 520 0 0 205 0 205 -90 0 -90 0 0 200 0 200 -115 0 -115 0 0 205 0 205 205 0 205 0 0 90 0 90 200 0 200 0 0 110 0 110 115 0 115 0 0 205 0 205 110 0 110 0 0 610 0 610 -110 0 -110 0 0 200 0 200 -115 0 -115 0 0 115 0 115 -200 0 -200 0 0 90 0 90 -295 0 -295 0 0 -90 0 -90 -110 0 -110 0 0 290 0 290 110 0 110 0 0 315 0 315 -110 0 -110 0 0 115 0 115 -90 0 -90 0 0 90 0 90 -430 0 -430 0 0 -90 0 -90 -90 0 -90 0 0 -115 0 -115 -205 0 -205 0 0 -90 0 -90 -110 0 -110 0 0 -110 0 -110 -90 0 -90 0 0 720 0 720 -115 0 -115 0 0 90 0 90 -90 0 -90 0 0 115 0 115 -110 0 -110 0 0 90 0 90 -90 0 -90 0 0 -1825z" transform="translate(0.000000,696.000000) scale(0.100000,-0.100000)"/></g></svg>